<svg width="41" height="40" viewBox="0 0 41 40" fill="none" xmlns="http://www.w3.org/2000/svg">
<path d="M10.7501 6C11.7501 5 11.0001 2 9.31207 2C7.62407 2 7.75007 4 8.75007 4C9.75007 4 9.75007 6 9.75007 7C9.75007 8 10.7501 6 10.7501 6ZM6.56707 7.72C7.56707 6.72 6.81707 3.72 5.12907 3.72C3.44107 3.72 3.56707 5.72 4.56707 5.72C5.56707 5.72 5.56707 7.72 5.56707 8.72C5.56707 9.72 6.56707 7.72 6.56707 7.72Z" fill="#AA8DD8"/>
<path d="M32.942 34.856C33.131 35.664 34.169 37.136 34.974 36.947C35.78 36.757 36.051 34.976 35.862 34.17C35.673 33.362 34.864 32.863 34.058 33.053C33.253 33.243 32.752 34.05 32.942 34.856ZM27.508 35.505C27.511 36.335 28.189 38.003 29.017 38C29.845 37.996 30.511 36.323 30.508 35.494C30.505 34.665 29.831 33.997 29.003 33.999C28.175 34.003 27.505 34.676 27.508 35.505ZM22.237 33.059C21.911 33.823 21.872 35.622 22.633 35.949C23.396 36.273 24.67 35.002 24.996 34.239C25.321 33.477 24.968 32.596 24.207 32.269C23.445 31.944 22.564 32.296 22.237 33.059ZM17.206 22.019C16.394 22.191 14.898 23.192 15.067 24.002C15.24 24.812 17.012 25.126 17.824 24.955C18.635 24.784 19.153 23.988 18.984 23.178C18.812 22.368 18.019 21.848 17.206 22.019ZM15.169 17.019C14.357 17.191 12.861 18.192 13.03 19.002C13.203 19.812 14.975 20.126 15.787 19.955C16.598 19.784 17.116 18.988 16.947 18.178C16.775 17.368 15.981 16.848 15.169 17.019Z" fill="#744EAA"/>
<path d="M30.5791 36C33.41 36 35.505 35.123 35.845 34.973C38.1161 33.963 39.1381 31.304 38.1291 29.034C37.1301 26.784 34.5131 25.759 32.2571 26.72C32.1241 26.77 30.4641 27.369 28.9141 26.648C27.0631 25.787 25.9191 23.339 25.2861 21.439C25.1421 21.009 24.9011 20.165 24.6 19.123C22.7341 12.652 21.7681 10.838 20.6171 9.30299C16.906 4.35199 11.0251 4.00699 8.13405 4.58699C5.69705 5.07399 4.11605 7.44499 4.60405 9.88199C5.09205 12.32 7.46405 13.902 9.90005 13.412C10.0621 13.386 12.1041 13.106 13.3241 14.581C13.9671 15.868 15.4041 19.709 15.9541 21.615C16.3001 22.814 16.5831 23.786 16.7481 24.282C18.5211 29.599 21.4141 33.175 25.3511 34.911C27.2031 35.729 29.0051 36 30.5791 36Z" fill="#9266CC"/>
<path d="M10.0171 8C10.5694 8 11.0171 7.55228 11.0171 7C11.0171 6.44772 10.5694 6 10.0171 6C9.46481 6 9.01709 6.44772 9.01709 7C9.01709 7.55228 9.46481 8 10.0171 8Z" fill="#202024"/>
<path d="M34.2581 34.964C34.1691 34.964 34.0781 34.952 33.9891 34.928C33.4571 34.78 33.1451 34.229 33.2931 33.697C34.0501 30.975 32.5231 29.155 32.5081 29.137C32.1491 28.718 32.1961 28.086 32.6151 27.727C33.0331 27.368 33.6661 27.415 34.0251 27.834C34.1171 27.941 36.2591 30.494 35.2201 34.231C35.0981 34.674 34.6951 34.964 34.2581 34.964ZM27.0591 34.401C26.8141 34.401 26.5691 34.312 26.3751 34.131C25.9721 33.753 25.9511 33.12 26.3281 32.717C27.8131 31.13 27.7811 28.524 27.7801 28.497C27.7641 27.945 28.1991 27.485 28.7521 27.469C29.2941 27.464 29.7651 27.888 29.7801 28.441C29.7841 28.58 29.8531 31.878 27.7891 34.085C27.5921 34.295 27.3251 34.401 27.0591 34.401ZM18.5171 25.705C18.0371 25.705 17.6131 25.358 17.5321 24.868C17.4421 24.324 17.8101 23.808 18.3551 23.719C21.4291 23.209 23.1291 21.342 23.1461 21.323C23.5111 20.913 24.1441 20.874 24.5551 21.239C24.9671 21.604 25.0081 22.232 24.6461 22.645C24.5591 22.744 22.4901 25.06 18.6821 25.691C18.6261 25.701 18.5711 25.705 18.5171 25.705ZM21.4381 30.562C21.0131 30.562 20.6191 30.29 20.4841 29.864C20.3181 29.338 20.6101 28.775 21.1361 28.609C23.8291 27.756 25.0161 25.779 25.0281 25.759C25.3081 25.282 25.9201 25.122 26.3961 25.402C26.8731 25.681 27.0321 26.295 26.7531 26.77C26.6901 26.878 25.1581 29.433 21.7401 30.514C21.6391 30.547 21.5371 30.562 21.4381 30.562ZM16.8191 19.892C16.3231 19.892 15.8921 19.523 15.8281 19.017C15.7591 18.469 16.1471 17.969 16.6951 17.899C19.3841 17.559 21.3521 15.928 21.3711 15.911C21.7931 15.557 22.4241 15.608 22.7791 16.03C23.1351 16.451 23.0841 17.08 22.6641 17.437C22.5671 17.52 20.2441 19.466 16.9461 19.883C16.9031 19.889 16.8611 19.892 16.8191 19.892ZM14.9981 15.125C14.5731 15.125 14.1791 14.852 14.0441 14.424C13.8791 13.897 14.1711 13.336 14.6981 13.17C17.8281 12.187 18.9511 10.478 18.9971 10.406C19.2921 9.944 19.9081 9.801 20.3721 10.094C20.8371 10.386 20.9831 10.993 20.6961 11.46C20.6361 11.557 19.1901 13.856 15.2971 15.079C15.1981 15.11 15.0971 15.125 14.9981 15.125Z" fill="#744EAA"/>
</svg>
